<?xml version="1.0" encoding="UTF-8" standalone="no"?>
<!-- Created with Inkscape (http://www.inkscape.org/) -->

<svg
   height="64"
   width="64"
   version="1.1"
   id="svg2"
   sodipodi:docname="nBTC-robert.svg"
   inkscape:version="1.4 (e7c3feb100, 2024-10-09)"
   xmlns:inkscape="http://www.inkscape.org/namespaces/inkscape"
   xmlns:sodipodi="http://sodipodi.sourceforge.net/DTD/sodipodi-0.dtd"
   xmlns="http://www.w3.org/2000/svg"
   xmlns:svg="http://www.w3.org/2000/svg">
  <defs
     id="defs2" />
  <sodipodi:namedview
     id="namedview2"
     pagecolor="#ffffff"
     bordercolor="#000000"
     borderopacity="0.25"
     inkscape:showpageshadow="2"
     inkscape:pageopacity="0.0"
     inkscape:pagecheckerboard="0"
     inkscape:deskcolor="#d1d1d1"
     inkscape:zoom="22.627417"
     inkscape:cx="46.182912"
     inkscape:cy="35.642601"
     inkscape:window-width="1920"
     inkscape:window-height="1023"
     inkscape:window-x="0"
     inkscape:window-y="0"
     inkscape:window-maximized="0"
     inkscape:current-layer="svg2" />
  <g
     transform="translate(0.00630876,-0.00301984)"
     id="g2">
    <path
       fill="#f7931a"
       d="M 63.033,39.744 C 58.759,56.887 41.396,67.32 24.251,63.045 7.113,58.771 -3.32,41.407 0.956,24.265 5.228,7.12 22.591,-3.314 39.731,0.96 56.875,5.234 67.307,22.6 63.033,39.744 Z"
       id="path1"
       sodipodi:nodetypes="ccccc" />
    <path
       fill="#ffffff"
       d="M 46.103,27.444 C 46.74,23.186 43.498,20.897 39.065,19.37 l 1.438,-5.768 -3.511,-0.875 -1.4,5.616 c -0.923,-0.23 -1.871,-0.447 -2.813,-0.662 l 1.41,-5.653 -3.509,-0.875 -1.439,5.766 c -0.764,-0.174 -1.514,-0.346 -2.242,-0.527 l 0.004,-0.018 -4.842,-1.209 -0.934,3.75 c 0,0 2.605,0.597 2.55,0.634 1.422,0.355 1.679,1.296 1.636,2.042 l -1.638,6.571 c 0.098,0.025 0.225,0.061 0.365,0.117 -0.117,-0.029 -0.242,-0.061 -0.371,-0.092 l -2.296,9.205 c -0.174,0.432 -0.615,1.08 -1.609,0.834 0.035,0.051 -2.552,-0.637 -2.552,-0.637 l -1.743,4.019 4.569,1.139 c 0.85,0.213 1.683,0.436 2.503,0.646 l -1.453,5.834 3.507,0.875 1.439,-5.772 c 0.958,0.26 1.888,0.5 2.798,0.726 l -1.434,5.745 3.511,0.875 1.453,-5.823 c 5.987,1.133 10.489,0.676 12.384,-4.739 1.527,-4.36 -0.076,-6.875 -3.226,-8.515 2.294,-0.529 4.022,-2.038 4.483,-5.155 z m -8.022,11.249 c -1.085,4.36 -8.426,2.003 -10.806,1.412 l 1.928,-7.729 c 2.38,0.594 10.012,1.77 8.878,6.317 z m 1.086,-11.312 c -0.99,3.966 -7.1,1.951 -9.082,1.457 l 1.748,-7.01 c 1.982,0.494 8.365,1.416 7.334,5.553 z"
       id="path2"
       sodipodi:nodetypes="cccccccccccccccccccccccccccccccccccccccccc" />
  </g>
  <path
     d="m 17.493758,20.339851 c 2.880734,1.63145 5.416258,7.746053 5.416258,7.746053 l -1.26967,5.083942 -0.440521,0.352133 c -1.505957,0.985246 -5.133709,2.410519 -7.596954,0.229124 -2.463247,-2.181465 -2.421759,-4.064129 -2.065475,-4.666827 0.356336,-0.602698 5.769526,0.899862 6.022925,-0.08837 0.253452,-0.98827 -1.635047,-1.069796 -2.576166,-1.492631 -0.941115,-0.42291 -5.411764,-3.291436 -5.806803,-7.183248 -0.1510259,-1.487699 -0.09838,-3.493456 0.314451,-3.813515 0,0 5.121219,2.20191 8.001956,3.833361 z"
     fill="#fffeff"
     id="path2-5"
     sodipodi:nodetypes="scccccccccss"
     style="stroke-width:0.0624753" />
  <path
     d="M 53.917184,30.316579 C 50.608233,30.421968 45.3,34.778714 45.3,34.778714 c 0.403642,0.859432 1.627572,3.213504 0.156277,6.720661 l 0.105584,0.230622 c 0.875381,1.572362 2.371191,3.055828 5.566137,2.269452 3.194977,-0.786431 4.033386,-2.472616 3.998096,-3.171858 -0.03534,-0.699265 -5.526599,-1.885186 -5.291581,-2.87795 0.235026,-0.992815 1.944946,-0.187154 2.974757,-0.124057 1.029847,0.06299 6.321539,-0.398599 8.480383,-3.660755 0.825261,-1.246995 1.71101,-3.04735 1.494273,-3.522631 0,0 -5.557835,-0.430999 -8.866787,-0.325602 z"
     fill="#fffeff"
     id="path2-5-7"
     sodipodi:nodetypes="scccccccccss"
     style="stroke-width:0.0624753" />
</svg>
